<svg width="15" height="20" viewBox="0 0 15 20" fill="none" xmlns="http://www.w3.org/2000/svg">
<path d="M13.079 9.47368C13.079 12.6316 10.4053 14.8421 7.50001 14.8421C4.59475 14.8421 1.92107 12.6316 1.92107 9.47368H0.131592C0.131592 13.0632 2.99475 16.0316 6.44738 16.5474V20H8.55264V16.5474C12.0053 16.0316 14.8684 13.0632 14.8684 9.47368M6.23686 3.05263C6.23686 2.35789 6.80528 1.78947 7.50001 1.78947C8.19475 1.78947 8.76317 2.35789 8.76317 3.05263L8.75264 9.57895C8.75264 10.2737 8.19475 10.8421 7.50001 10.8421C6.80528 10.8421 6.23686 10.2737 6.23686 9.57895M7.50001 12.6316C8.33754 12.6316 9.14076 12.2989 9.73298 11.7067C10.3252 11.1144 10.6579 10.3112 10.6579 9.47368V3.15789C10.6579 2.32037 10.3252 1.51715 9.73298 0.924926C9.14076 0.332706 8.33754 0 7.50001 0C6.66249 0 5.85926 0.332706 5.26704 0.924926C4.67482 1.51715 4.34212 2.32037 4.34212 3.15789V9.47368C4.34212 10.3112 4.67482 11.1144 5.26704 11.7067C5.85926 12.2989 6.66249 12.6316 7.50001 12.6316Z" fill="#264B82"/>
</svg>
